#N canvas 115 326 644 379 10;
#X obj 19 92 tgl 130 1 toggle_1_0 empty empty 17 7 0 10 -4034 -1 -1
0 1;
#X obj 187 93 tgl 130 1 toggle_2_0 empty empty 17 7 0 10 -262144 -1
-1 0 1;
#N canvas 748 79 584 663 audio 1;
#X obj 282 579 dac~;
#X obj 36 34 loadbang;
#X msg 36 55 \; pd dsp 1;
#X obj 91 94 adc~;
#X obj 99 292 tabwrite~ loop1;
#X obj 71 492 table loop1;
#X msg 301 163 start;
#X msg 133 236 stop;
#X obj 327 465 tabplay~ loop1;
#X obj 437 419 bng 15 250 50 0 empty empty empty 17 7 0 10 -262144
-1 -1;
#X obj 46 438 s loop1;
#X msg 326 204 normalize -1 1;
#X obj 241 18 r toggle_1_0;
#X obj 241 44 sel 0 1;
#X msg 337 423 stop;
#X obj 360 264 r toggle_2_0;
#X obj 360 297 sel 0 1;
#X obj 46 336 loadbang;
#X obj 350 231 s loop1;
#X obj 256 304 timer;
#X floatatom 256 333 10 0 0 0 - - -;
#X obj 282 264 bng 15 250 50 0 empty empty empty 17 7 0 10 -262144
-1 -1;
#X obj 253 262 bng 15 250 50 0 empty empty empty 17 7 0 10 -262144
-1 -1;
#X msg 350 179 const 0;
#X obj 403 374 t b b;
#X obj 484 376 delay 1;
#X obj 519 457 spigot;
#X obj 351 382 t b b;
#X msg 389 412 0;
#X obj 391 321 t b b;
#X msg 451 343 1;
#X obj 436 290 r restart;
#X obj 256 372 s smpl-r;
#X obj 71 518 table loop2;
#X obj 309 93 t b b b b;
#X obj 147 152 line~;
#X obj 99 214 *~;
#X obj 110 466 s loop2;
#X obj 241 69 t b b b b;
#X obj 212 156 delay 10;
#X msg 183 130 0 10;
#X obj 211 184 t b b;
#N canvas 24 416 668 300 loop2 0;
#X obj 115 27 r loop2Go;
#X obj 42 267 tabwrite~ loop2;
#X obj -18 30 adc~;
#X obj 43 151 *~;
#X obj 110 101 sel 1 0;
#X obj 258 108 tabplay~ loop2;
#X obj 243 11 r Loop2Sync;
#X obj 375 211 throw~ Loop2;
#X obj 243 58 t b b;
#X msg -95 201 normalize -1 1;
#X obj -115 228 s loop2;
#X obj 372 174 *~;
#X obj 387 137 r Loop2Cut;
#X msg -179 162 const 0;
#X obj -179 68 r loop2Reset;
#X obj 92 65 t f f;
#X obj -57 85 hip~ 50;
#X obj -58 112 lop~ 8000;
#X connect 0 0 15 0;
#X connect 2 0 3 0;
#X connect 3 0 1 0;
#X connect 4 1 9 0;
#X connect 5 0 1 0;
#X connect 5 0 11 0;
#X connect 6 0 8 0;
#X connect 8 0 1 0;
#X connect 8 1 5 0;
#X connect 9 0 10 0;
#X connect 11 0 7 0;
#X connect 12 0 11 1;
#X connect 13 0 10 0;
#X connect 14 0 13 0;
#X connect 15 0 3 1;
#X connect 15 1 4 0;
#X connect 16 0 17 0;
#X restore 14 244 pd loop2;
#X obj 283 503 hip~ 5;
#X obj 283 530 clip~ -1 1;
#X obj 234 463 catch~ Loop2;
#X msg 139 436 resize \$1;
#X obj 175 376 * 22.05;
#X obj 435 452 s Loop2Sync;
#X obj 390 525 r loop2Go;
#X obj 286 552 *~;
#X obj 391 554 sel 0 1;
#X msg 393 575 1;
#X msg 424 578 0;
#X msg 46 382 resize 882000;
#X msg 160 109 0 \, 1 300;
#X obj 56 133 hip~ 50;
#N canvas 137 205 450 537 SAVE 1;
#X obj 185 70 bng 15 250 50 0 empty empty empty 17 7 0 10 -262144 -1
-1;
#X obj 52 146 catch~ torec;
#X obj 15 100 r Loop2Sync;
#X obj 187 332 soundfiler;
#X obj 15 235 tabwrite~ rec;
#X obj 298 143 pack f f;
#X obj 343 83 r smpl-r;
#X obj 248 74 f;
#X obj 281 73 + 1;
#X floatatom 262 98 5 0 0 0 - - -;
#X msg 296 180 symbol \$1_\$2;
#X obj 251 238 makefilename %s.wav;
#X msg 188 283 write -wave \$1 rec;
#X obj 343 112 int;
#X obj 185 42 r save;
#X connect 0 0 7 0;
#X connect 1 0 4 0;
#X connect 2 0 4 0;
#X connect 5 0 10 0;
#X connect 6 0 13 0;
#X connect 7 0 8 0;
#X connect 7 0 9 0;
#X connect 8 0 7 1;
#X connect 9 0 5 0;
#X connect 10 0 11 0;
#X connect 11 0 12 0;
#X connect 12 0 3 0;
#X connect 13 0 5 1;
#X connect 14 0 0 0;
#X restore 30 588 pd SAVE;
#X obj 71 551 table rec;
#X obj 167 466 s rec;
#X obj 200 569 throw~ torec;
#X obj 55 160 lop~ 7000;
#X connect 1 0 2 0;
#X connect 3 0 56 0;
#X connect 3 1 56 0;
#X connect 6 0 4 0;
#X connect 7 0 4 0;
#X connect 8 0 43 0;
#X connect 9 0 8 0;
#X connect 9 0 48 0;
#X connect 11 0 18 0;
#X connect 12 0 13 0;
#X connect 13 0 38 0;
#X connect 13 1 34 0;
#X connect 14 0 8 0;
#X connect 15 0 16 0;
#X connect 16 0 27 0;
#X connect 16 1 29 0;
#X connect 17 0 54 0;
#X connect 19 0 20 0;
#X connect 19 0 25 1;
#X connect 20 0 47 0;
#X connect 20 0 32 0;
#X connect 21 0 19 1;
#X connect 22 0 19 0;
#X connect 23 0 18 0;
#X connect 24 0 9 0;
#X connect 24 1 25 0;
#X connect 25 0 26 0;
#X connect 26 0 24 0;
#X connect 27 0 14 0;
#X connect 27 1 28 0;
#X connect 28 0 26 1;
#X connect 29 0 24 0;
#X connect 29 1 30 0;
#X connect 30 0 26 1;
#X connect 31 0 9 0;
#X connect 34 0 6 0;
#X connect 34 1 55 0;
#X connect 34 2 22 0;
#X connect 34 3 23 0;
#X connect 35 0 36 1;
#X connect 36 0 4 0;
#X connect 38 0 39 0;
#X connect 38 1 40 0;
#X connect 38 2 21 0;
#X connect 39 0 41 0;
#X connect 40 0 35 0;
#X connect 41 0 11 0;
#X connect 41 1 7 0;
#X connect 43 0 44 0;
#X connect 44 0 50 0;
#X connect 44 0 60 0;
#X connect 45 0 43 0;
#X connect 46 0 37 0;
#X connect 46 0 59 0;
#X connect 47 0 46 0;
#X connect 49 0 51 0;
#X connect 50 0 0 0;
#X connect 50 0 0 1;
#X connect 51 0 52 0;
#X connect 51 1 53 0;
#X connect 52 0 50 1;
#X connect 53 0 50 1;
#X connect 54 0 10 0;
#X connect 55 0 35 0;
#X connect 56 0 61 0;
#X connect 61 0 36 0;
#X restore 19 29 pd audio;
#X obj 87 27 numberbox 100 32 smpl-r smpl 10 50000 10;
#X obj 352 93 bng 130 250 50 0 restart empty bang 17 7 0 10 -262144
-1 -1;
#X text 535 350 Mick & X 2012;
#X obj 17 230 tgl 130 1 loop2Go empty empty 17 7 0 10 -4034 -1 -1 0
1;
#X obj 187 231 tgl 130 1 Loop2Cut empty empty 17 7 0 10 -262144 -1
-1 0 1;
#X obj 353 233 bng 130 250 50 0 loop2Reset empty reset2 17 7 0 10 -262144
-1 -1;
#X text 538 340 MICKLOOPER;
#X obj 522 116 bng 50 250 50 0 save empty SAVE 17 7 0 10 -262144 -1
-1;
