#N canvas 13 303 644 379 10;
#X obj 19 92 tgl 130 1 loop1Go empty empty 17 7 0 10 -4034 -1 -1 0
1;
#X obj 187 93 tgl 130 1 loop1_cut empty empty 17 7 0 10 -262144 -1
-1 0 1;
#N canvas 614 81 747 616 audio 0;
#X obj 216 421 dac~;
#X obj -48 -83 loadbang;
#X obj 370 -98 adc~;
#X obj 367 144 tabwrite~ loop1;
#X obj 568 -77 table loop1;
#X obj 236 248 tabplay~ loop1;
#X obj 189 -74 sel 0 1;
#X obj 16 188 sel 0 1;
#X obj 570 86 timer;
#X obj 397 246 t b b;
#X obj 453 283 delay 1;
#X obj 453 334 spigot;
#X obj 568 -51 table loop2;
#X obj 367 52 *~;
#X obj 189 100 delay 10;
#N canvas 536 119 668 343 loop2 0;
#X obj 153 -277 r loop2Go;
#X obj 12 267 tabwrite~ loop2;
#X obj 13 0 adc~;
#X obj 13 151 *~;
#X obj 258 108 tabplay~ loop2;
#X obj 231 11 r Loop2Sync;
#X obj 260 231 throw~ Loop2;
#X obj 231 58 t b b;
#X obj 398 245 s loop2;
#X obj 259 194 *~;
#X obj 274 157 r Loop2Cut;
#X msg 398 221 const 0;
#X obj 398 195 r loop2Reset;
#X obj 374 144 s loop2;
#X msg 403 114 resize \$1;
#X obj 403 84 * 22.05;
#X obj 431 144 s rec;
#X obj 364 30 r Smpl1Lenght;
#X obj 13 35 hip~ 50;
#X obj 12 62 lop~ 9000;
#X obj 29 121 vline~;
#X obj 537 92 t b b;
#X obj 552 137 delay 1;
#X obj 591 111 r Smpl1Lenght;
#X obj 537 62 r loopEngineGo;
#X obj 537 224 s Loop2Sync;
#X obj 454 24 samplerate~;
#X obj 455 49 / 1000;
#X obj 454 -2 loadbang;
#X obj 153 -253 sel 0 1;
#X obj 29 96 r loop2Som;
#X msg 172 -226 \; masterMute 0 \; loop2Som 1 300 \;;
#X obj 153 -176 t b b;
#X msg 153 -82 \; loop2Som 0 10 \; loop2 normalize -1 1 \; masterMute
1 \;;
#X msg 180 -151 \; loop2Som 0 10 \;;
#X obj 153 -115 delay 10;
#X connect 0 0 29 0;
#X connect 2 0 18 0;
#X connect 3 0 1 0;
#X connect 4 0 1 0;
#X connect 4 0 9 0;
#X connect 5 0 7 0;
#X connect 7 0 1 0;
#X connect 7 1 4 0;
#X connect 9 0 6 0;
#X connect 10 0 9 1;
#X connect 11 0 8 0;
#X connect 12 0 11 0;
#X connect 14 0 13 0;
#X connect 14 0 16 0;
#X connect 15 0 14 0;
#X connect 17 0 15 0;
#X connect 18 0 19 0;
#X connect 19 0 3 0;
#X connect 20 0 3 1;
#X connect 21 0 25 0;
#X connect 21 1 22 0;
#X connect 22 0 21 0;
#X connect 23 0 22 1;
#X connect 24 0 21 0;
#X connect 26 0 27 0;
#X connect 27 0 15 1;
#X connect 28 0 26 0;
#X connect 29 0 32 0;
#X connect 29 1 31 0;
#X connect 30 0 20 0;
#X connect 32 0 35 0;
#X connect 32 1 34 0;
#X connect 35 0 33 0;
#X restore 477 -79 pd loop2;
#X obj 218 307 hip~ 5;
#X obj 218 334 clip~ -1 1;
#X obj 219 196 catch~ Loop2;
#X obj 217 394 *~;
#X obj 369 -68 hip~ 50;
#N canvas 915 205 450 537 SAVE 0;
#X obj 102 256 catch~ torec;
#X obj 65 210 r Loop2Sync;
#X obj 188 309 soundfiler;
#X obj 65 305 tabwrite~ rec;
#X obj 188 205 pack f f;
#X obj 188 122 f;
#X obj 221 121 + 1;
#X msg 188 226 symbol \$1_\$2;
#X obj 188 251 makefilename %s.wav;
#X msg 188 283 write -wave \$1 rec;
#X obj 233 174 int;
#X obj 188 75 r wordbutton-save;
#X obj 188 99 b;
#X obj 233 145 r Smpl1Lenght;
#X connect 0 0 3 0;
#X connect 1 0 3 0;
#X connect 4 0 7 0;
#X connect 5 0 6 0;
#X connect 5 0 4 0;
#X connect 6 0 5 1;
#X connect 7 0 8 0;
#X connect 8 0 9 0;
#X connect 9 0 2 0;
#X connect 10 0 4 1;
#X connect 11 0 12 0;
#X connect 12 0 5 0;
#X connect 13 0 10 0;
#X restore 479 -51 pd SAVE;
#X obj 568 -25 table rec;
#X obj 119 418 throw~ torec;
#X obj 570 110 s Smpl1Lenght;
#X obj 492 257 r Smpl1Lenght;
#X obj 570 25 r timerStart;
#X obj 368 -41 lop~ 9000;
#X obj 383 10 vline~;
#X obj 383 -18 r loop1Som;
#X msg 208 -40 \; loop1 const 0 \; timerStart bang \; loop1Som 1 300
\; loop1Set start \;;
#X obj 377 98 r loop1Set;
#X obj 597 59 r timerStop;
#X obj 189 41 t b b;
#X msg 216 64 \; loop1Som 0 10;
#X msg 189 127 \; timerStop bang \; loop1Set stop \; loop1 normalize
-1 1;
#X obj 236 224 r loop1ctrl;
#X obj 16 160 r loop1_cut;
#X obj 189 -100 r loop1Go;
#N canvas 1 85 450 300 MUTE 0;
#X obj 123 234 vline~;
#X obj 216 -51 r muteOff;
#X obj 216 -24 sel 0 1;
#X msg 215 2 1;
#X msg 242 1 0;
#X obj 119 90 spigot 1;
#X obj 122 266 outlet~;
#X obj 120 -32 r masterMute;
#X msg 126 197 \$1 10;
#X obj 119 118 t f f;
#X obj 215 44 t b f;
#X obj 127 170 f 1;
#X connect 0 0 6 0;
#X connect 1 0 2 0;
#X connect 2 0 3 0;
#X connect 2 1 4 0;
#X connect 3 0 10 0;
#X connect 4 0 10 0;
#X connect 5 0 9 0;
#X connect 7 0 5 0;
#X connect 8 0 0 0;
#X connect 9 0 11 0;
#X connect 9 1 11 1;
#X connect 10 0 11 0;
#X connect 10 1 5 1;
#X connect 11 0 8 0;
#X restore 233 357 pd MUTE;
#X obj 486 311 r loopEngineCtrl;
#X obj 397 216 r loopEngineGo;
#X msg 35 214 \; loopEngineCtrl 1 \; loopEngineGo bang;
#X msg 16 267 \; loopEngineCtrl 0 \; loop1ctrl stop;
#X obj 364 422 s loop1ctrl;
#X obj 364 393 delay 3;
#X obj 404 370 r latencia;
#X obj 452 407 s latenciaCheck;
#X msg -48 -52 \; pd dsp 1 \; loop1 resize 3.528e+06 \; masterMute
1;
#X connect 1 0 48 0;
#X connect 2 0 20 0;
#X connect 5 0 16 0;
#X connect 6 0 33 0;
#X connect 6 1 30 0;
#X connect 7 0 43 0;
#X connect 7 1 42 0;
#X connect 8 0 24 0;
#X connect 9 0 45 0;
#X connect 9 1 10 0;
#X connect 10 0 11 0;
#X connect 11 0 9 0;
#X connect 13 0 3 0;
#X connect 14 0 35 0;
#X connect 16 0 17 0;
#X connect 17 0 19 0;
#X connect 17 0 23 0;
#X connect 18 0 16 0;
#X connect 19 0 0 0;
#X connect 19 0 0 1;
#X connect 20 0 27 0;
#X connect 25 0 10 1;
#X connect 26 0 8 0;
#X connect 27 0 13 0;
#X connect 28 0 13 1;
#X connect 29 0 28 0;
#X connect 31 0 3 0;
#X connect 32 0 8 1;
#X connect 33 0 14 0;
#X connect 33 1 34 0;
#X connect 36 0 5 0;
#X connect 37 0 7 0;
#X connect 38 0 6 0;
#X connect 39 0 19 1;
#X connect 40 0 11 1;
#X connect 41 0 9 0;
#X connect 45 0 44 0;
#X connect 46 0 45 1;
#X connect 46 0 47 0;
#X restore 19 29 pd audio;
#X obj 352 93 bng 130 250 50 0 loop1ctrl empty bang 17 7 0 10 -262144
-1 -1;
#X text 534 350 Mick & X 2012;
#X obj 17 230 tgl 130 1 loop2Go empty empty 17 7 0 10 -4034 -1 -1 0
1;
#X obj 187 231 tgl 130 1 Loop2Cut empty empty 17 7 0 10 -262144 -1
-1 0 1;
#X obj 353 233 bng 130 250 50 0 loop2Reset empty reset2 17 7 0 10 -262144
-1 -1;
#X text 538 340 MICKLOOPER;
#X obj 496 30 wordbutton 80 30 save;
#X obj 510 110 tgl 100 1 muteOff empty empty 17 7 0 10 -262144 -1 -1
0 1;
#X obj 87 27 numberbox 200 32 Smpl1Lenght smpl 0 882000 0;
#X obj 514 292 numberbox 100 32 foobar latencia 0 99999 0;
