#N canvas 420 163 644 379 10;
#X obj 19 92 tgl 130 1 toggle_1_0 empty empty 17 7 0 10 -4034 -1 -1
0 1;
#X obj 187 93 tgl 130 1 toggle_2_0 empty empty 17 7 0 10 -262144 -1
-1 0 1;
#N canvas 616 126 747 616 audio 1;
#X obj 299 549 dac~;
#X obj -48 -83 loadbang;
#X obj 370 -98 adc~;
#X obj 367 144 tabwrite~ loop1;
#X obj 568 -77 table loop1;
#X obj 348 413 tabplay~ loop1;
#X obj 423 372 bng 15 250 50 0 empty empty empty 17 7 0 10 -262144
-1 -1;
#X obj 189 -100 r toggle_1_0;
#X obj 189 -74 sel 0 1;
#X msg 323 376 stop;
#X obj 346 217 r toggle_2_0;
#X obj 346 250 sel 0 1;
#X obj 570 86 timer;
#X obj 389 327 t b b;
#X obj 510 340 delay 1;
#X obj 510 371 spigot;
#X obj 337 335 t b b;
#X msg 375 365 0;
#X obj 377 274 t b b;
#X msg 437 296 1;
#X obj 422 243 r restart;
#X obj 568 -51 table loop2;
#X obj 367 52 *~;
#X obj 189 100 delay 10;
#N canvas 108 210 668 300 loop2 0;
#X obj 83 27 r loop2Go;
#X obj 12 267 tabwrite~ loop2;
#X obj 13 0 adc~;
#X obj 13 151 *~;
#X obj 110 101 sel 1 0;
#X obj 258 108 tabplay~ loop2;
#X obj 231 11 r Loop2Sync;
#X obj 260 231 throw~ Loop2;
#X obj 231 58 t b b;
#X msg 129 201 normalize -1 1;
#X obj 129 228 s loop2;
#X obj 259 194 *~;
#X obj 274 157 r Loop2Cut;
#X msg 49 162 const 0;
#X obj 49 136 r loop2Reset;
#X obj 83 65 t f f;
#X obj 374 144 s loop2;
#X msg 403 114 resize \$1;
#X obj 403 84 * 22.05;
#X obj 431 144 s rec;
#X obj 403 47 r Smpl1Lenght;
#X obj 13 35 hip~ 50;
#X obj 12 62 lop~ 9000;
#X connect 0 0 15 0;
#X connect 2 0 21 0;
#X connect 3 0 1 0;
#X connect 4 1 9 0;
#X connect 5 0 1 0;
#X connect 5 0 11 0;
#X connect 6 0 8 0;
#X connect 8 0 1 0;
#X connect 8 1 5 0;
#X connect 9 0 10 0;
#X connect 11 0 7 0;
#X connect 12 0 11 1;
#X connect 13 0 10 0;
#X connect 14 0 13 0;
#X connect 15 0 3 1;
#X connect 15 1 4 0;
#X connect 17 0 16 0;
#X connect 17 0 19 0;
#X connect 18 0 17 0;
#X connect 20 0 18 0;
#X connect 21 0 22 0;
#X connect 22 0 3 0;
#X restore 477 -79 pd loop2;
#X obj 290 452 hip~ 5;
#X obj 290 479 clip~ -1 1;
#X obj 255 411 catch~ Loop2;
#X obj 456 400 s Loop2Sync;
#X obj 590 408 r loop2Go;
#X obj 303 522 *~;
#X obj 419 470 sel 0 1;
#X msg 421 492 1;
#X msg 452 492 0;
#X obj 369 -68 hip~ 50;
#N canvas 450 52 450 537 SAVE 0;
#X obj 102 256 catch~ torec;
#X obj 65 210 r Loop2Sync;
#X obj 188 309 soundfiler;
#X obj 65 305 tabwrite~ rec;
#X obj 188 205 pack f f;
#X obj 188 122 f;
#X obj 221 121 + 1;
#X msg 188 226 symbol \$1_\$2;
#X obj 188 251 makefilename %s.wav;
#X msg 188 283 write -wave \$1 rec;
#X obj 233 174 int;
#X obj 188 75 r wordbutton-save;
#X obj 188 99 b;
#X obj 233 145 r Smpl1Lenght;
#X connect 0 0 3 0;
#X connect 1 0 3 0;
#X connect 4 0 7 0;
#X connect 5 0 6 0;
#X connect 5 0 4 0;
#X connect 6 0 5 1;
#X connect 7 0 8 0;
#X connect 8 0 9 0;
#X connect 9 0 2 0;
#X connect 10 0 4 1;
#X connect 11 0 12 0;
#X connect 12 0 5 0;
#X connect 13 0 10 0;
#X restore 479 -51 pd SAVE;
#X obj 568 -25 table rec;
#X obj 217 539 throw~ torec;
#X obj 570 110 s Smpl1Lenght;
#X obj 549 307 r Smpl1Lenght;
#X msg -48 -52 \; pd dsp 1 \; loop1 resize 3.528e+06;
#X obj 570 25 r timerStart;
#X obj 368 -41 lop~ 9000;
#X obj 383 10 vline~;
#X obj 383 -18 r loop1Som;
#X msg 208 -40 \; loop1 const 0 \; timerStart bang \; loop1Som 1 300
\; loop1Set start \;;
#X obj 377 98 r loop1Set;
#X obj 597 59 r timerStop;
#X obj 189 41 t b b;
#X msg 216 64 \; loop1Som 0 10;
#X msg 189 127 \; timerStop bang \; loop1Set stop \; loop1 normalize
-1 1;
#X obj 367 526 vline~;
#X obj 591 448 r muteOff;
#X obj 591 475 sel 0 1;
#X msg 590 501 1;
#X msg 617 500 0;
#X obj 475 444 spigot 1;
#X obj 606 546 print;
#X connect 1 0 40 0;
#X connect 2 0 34 0;
#X connect 5 0 25 0;
#X connect 6 0 5 0;
#X connect 6 0 28 0;
#X connect 7 0 8 0;
#X connect 8 0 48 0;
#X connect 8 1 45 0;
#X connect 9 0 5 0;
#X connect 10 0 11 0;
#X connect 11 0 16 0;
#X connect 11 1 18 0;
#X connect 12 0 38 0;
#X connect 13 0 6 0;
#X connect 13 1 14 0;
#X connect 14 0 15 0;
#X connect 15 0 13 0;
#X connect 16 0 9 0;
#X connect 16 1 17 0;
#X connect 17 0 15 1;
#X connect 18 0 13 0;
#X connect 18 1 19 0;
#X connect 19 0 15 1;
#X connect 20 0 6 0;
#X connect 22 0 3 0;
#X connect 23 0 50 0;
#X connect 25 0 26 0;
#X connect 26 0 30 0;
#X connect 26 0 37 0;
#X connect 27 0 25 0;
#X connect 29 0 56 0;
#X connect 30 0 0 0;
#X connect 30 0 0 1;
#X connect 31 0 32 0;
#X connect 31 1 33 0;
#X connect 32 0 51 0;
#X connect 33 0 51 0;
#X connect 34 0 42 0;
#X connect 39 0 14 1;
#X connect 41 0 12 0;
#X connect 42 0 22 0;
#X connect 43 0 22 1;
#X connect 44 0 43 0;
#X connect 46 0 3 0;
#X connect 47 0 12 1;
#X connect 48 0 23 0;
#X connect 48 1 49 0;
#X connect 51 0 30 1;
#X connect 52 0 53 0;
#X connect 53 0 54 0;
#X connect 53 1 55 0;
#X connect 54 0 56 1;
#X connect 54 0 57 0;
#X connect 55 0 56 1;
#X connect 55 0 57 0;
#X connect 56 0 31 0;
#X restore 19 29 pd audio;
#X obj 352 93 bng 130 250 50 0 restart empty bang 17 7 0 10 -262144
-1 -1;
#X text 535 350 Mick & X 2012;
#X obj 17 230 tgl 130 1 loop2Go empty empty 17 7 0 10 -4034 -1 -1 0
1;
#X obj 187 231 tgl 130 1 Loop2Cut empty empty 17 7 0 10 -262144 -1
-1 0 1;
#X obj 353 233 bng 130 250 50 0 loop2Reset empty reset2 17 7 0 10 -262144
-1 -1;
#X text 538 340 MICKLOOPER;
#X obj 496 30 wordbutton 80 30 save;
#X obj 87 27 numberbox 200 32 Smpl1Lenght smpl 10 882000 0;
#X obj 510 110 tgl 100 1 muteOff empty empty 17 7 0 10 -262144 -1 -1
0 1;
